<svg xmlns="http://www.w3.org/2000/svg" width="108.143" height="107.248" viewBox="0 0 108.143 107.248">
  <g>
    <g>
      <path d="M54.08,107.239A9.5,9.5,0,0,0,60.338,91.03L54.07,84.757,91.927,46.9A9.5,9.5,0,0,1,105.36,60.333L61.23,104.462A9.478,9.478,0,0,1,54.08,107.239Z" fill="#5e96fc"/>
      <g>
        <path d="M54.08,107.239a.021.021,0,0,0-.024,0A9.5,9.5,0,0,1,47.8,91.03l6.273-6.273,6.268,6.273a9.5,9.5,0,0,1-6.258,16.209Z" fill="#3258a1"/>
        <path d="M54.056,107.239a9.473,9.473,0,0,1-7.145-2.777L2.781,60.333A9.5,9.5,0,0,1,16.213,46.9L54.07,84.757,47.8,91.03a9.5,9.5,0,0,0,6.259,16.209Z" fill="#4369b1"/>
      </g>
    </g>
    <g>
      <path d="M54.08,63.118A9.5,9.5,0,0,0,60.338,46.91L54.07,40.637,91.927,2.78A9.5,9.5,0,0,1,105.36,16.212L61.23,60.342A9.477,9.477,0,0,1,54.08,63.118Z" fill="#5e96fc"/>
      <g>
        <path d="M54.08,63.118a.021.021,0,0,0-.024,0A9.5,9.5,0,0,1,47.8,46.91l6.273-6.273,6.268,6.273A9.5,9.5,0,0,1,54.08,63.118Z" fill="#3258a1"/>
        <path d="M54.056,63.118a9.472,9.472,0,0,1-7.145-2.776L2.781,16.212A9.5,9.5,0,0,1,16.213,2.78L54.07,40.637,47.8,46.91a9.5,9.5,0,0,0,6.259,16.208Z" fill="#4369b1"/>
      </g>
    </g>
  </g>
</svg>
